<?xml version="1.0" encoding="UTF-8"?>
<svg width="752pt" height="752pt" version="1.1" viewBox="0 0 752 752" xmlns="http://www.w3.org/2000/svg">
 <g>
  <path d="m505.41 440.75h-170.85-101.5c-27.48-0.83594-52.809-15.082-67.797-38.133-14.988-23.051-17.73-51.984-7.3438-77.441 10.383-25.457 32.582-44.211 59.418-50.199-2.9023-17.867 1.8711-36.129 13.145-50.293 11.273-14.164 27.996-22.914 46.059-24.098 18.062-1.1836 35.789 5.3047 48.812 17.875 15.949-35.066 48.242-59.941 86.219-66.41s76.688 6.3164 103.34 34.125c26.656 27.809 37.789 67.023 29.719 104.69 16.523 4.1094 31.199 13.633 41.684 27.051 10.484 13.414 16.18 29.957 16.172 46.984 0.074218 20.055-7.875 39.309-22.078 53.473-14.156 14.176-33.324 22.215-53.359 22.375zm-170.84-9.25h192.39c17.605-0.14453 34.453-7.207 46.895-19.664 12.473-12.43 19.453-29.328 19.387-46.934 0.019531-15.711-5.4805-30.93-15.543-42.996s-24.043-20.215-39.5-23.02c-1.2656-0.23047-2.3789-0.97266-3.0703-2.0586-0.69531-1.082-0.90625-2.4023-0.58203-3.6484 9.2305-35.625-0.51953-73.492-25.801-100.23-25.285-26.742-62.547-38.594-98.633-31.375-36.086 7.2188-65.918 32.496-78.969 66.91-0.58203 1.543-1.9453 2.6562-3.5742 2.9219-1.6289 0.26953-3.2773-0.35156-4.3242-1.6289-10.586-12.969-26.508-20.402-43.246-20.199-16.742 0.20703-32.473 8.0312-42.742 21.254-10.266 13.223-13.945 30.406-9.9961 46.676 0.30078 1.25 0.066406 2.5703-0.64453 3.6406-0.71094 1.0703-1.832 1.8008-3.1016 2.0078-24.695 3.9844-45.754 20.066-56.098 42.844-10.34 22.777-8.5898 49.219 4.6641 70.434 13.258 21.211 36.254 34.379 61.258 35.07z"/>
  <path d="m256.9 289.8c-1.0312 0-2.0352-0.34375-2.8477-0.98047-7.7344-6.0508-25.121-5.9023-31.164-5.3203-2.5508 0.24219-4.8164-1.6328-5.0586-4.1875-0.23828-2.5547 1.6367-4.8203 4.1914-5.0625 4.6172-0.35547 9.2539-0.37109 13.875-0.042968 10.562 0.75 18.582 3.1992 23.828 7.3086l-0.003906-0.003906c1.5586 1.2148 2.1719 3.2852 1.5273 5.1523-0.64453 1.8672-2.4023 3.1172-4.375 3.1172z"/>
  <path d="m491.21 303.03c-2.2227 0-4.1289-1.5781-4.5469-3.7578-0.41406-2.1836 0.78125-4.3516 2.8438-5.168 24.734-9.7695 51.004-4.2656 52.113-4.0234 2.5 0.53906 4.0859 3 3.5469 5.5-0.53906 2.4961-3 4.0859-5.5 3.5469-0.25-0.054687-24.695-5.1328-46.766 3.5781-0.53906 0.21484-1.1133 0.32422-1.6914 0.32422z"/>
  <path d="m324.04 366.75c-30.848 0-30.848-30.199-30.848-40.125 0-15.113 0-46.57 31.645-46.57 9.6758 0 17.121 2.7734 22.145 8.168 6.9922 7.5273 6.3281 17.363 6.3008 17.777h-0.003906c-0.18359 2.5547-2.4023 4.4766-4.957 4.293-2.5547-0.18359-4.4766-2.4062-4.2891-4.957 0-0.19531 0.28516-6.418-3.9219-10.895-3.2109-3.4141-8.3242-5.1328-15.301-5.1328-18.73 0-22.395 13.68-22.395 37.32 0 21.93 6.2617 30.875 21.598 30.875 19.137 0 21.59-9.6016 21.59-17.961v-0.003907c0-2.5547 2.0703-4.625 4.625-4.625 2.5547 0 4.625 2.0703 4.625 4.625 0.027344 12.414-5.3203 27.211-30.812 27.211z"/>
  <path d="m475.46 365.17h-28.348c-1.8906-0.003906-3.5859-1.1562-4.2891-2.9141-0.69922-1.7539-0.26172-3.7578 1.1055-5.0625 0.75781-0.72266 18.609-17.684 23.125-21.707 1.7734-1.4961 2.9219-3.5938 3.2266-5.8906v-0.44531c0.03125-1.5898-0.51953-3.1328-1.5508-4.3398-1.8516-1.9258-5.125-2.332-7.5938-2.332-3.3945 0-5.8906 0.80469-7.3984 2.3867l-0.003906 0.003906c-1.3125 1.5469-2.0234 3.5195-1.9961 5.5469 0.15234 2.5391-1.7734 4.7266-4.3125 4.8945-1.2266 0.082031-2.4375-0.33203-3.3633-1.1445-0.92188-0.81641-1.4844-1.9648-1.5547-3.1953-0.1875-4.5391 1.4023-8.9766 4.4297-12.363 3.3398-3.5625 8.1211-5.3633 14.215-5.3633 6.3438 0 11.219 1.8516 14.496 5.4219v-0.003907c2.6992 3.0742 4.0938 7.0859 3.8828 11.172-0.34375 4.8594-2.6133 9.3789-6.3086 12.551-2.4141 2.1562-9 8.3242-14.496 13.543h16.746c2.5547 0 4.625 2.0703 4.625 4.625 0 2.5547-2.0703 4.625-4.625 4.625z"/>
  <path d="m397.36 366.75c-24.254 0-30.664-20.055-30.664-30.664v-26.082c0-0.30469 0.35156-30.652 30.664-30.652 24.254 0 30.664 20.055 30.664 30.652l-0.003907 26.039c0 10.609-6.4062 30.707-30.66 30.707zm0-78.105c-20.645 0-21.395 19.23-21.414 21.422v25.977c0 2.1719 0.76953 21.414 21.414 21.414s21.387-19.191 21.414-21.422v-26.031c-0.019532-2.1719-0.76953-21.402-21.414-21.402z"/>
  <path d="m232.34 603.54c-1.5508 0-3-0.77734-3.8555-2.0742-5.9922-9.3203-8.4727-20.465-7-31.445 0.92578-6.7617 3.8125-12.691 6.6523-18.414 0.79688-1.6172 1.5547-3.1523 2.2656-4.6914h-0.003906c3.2305-6.7852 3.8672-14.516 1.7969-21.738-1.1367-3.5625-2.4961-7.0469-4.082-10.434-1.3789-3.1367-2.7734-6.3711-3.9297-9.7852-2.4531-7.7148-3.6641-15.77-3.5781-23.867v-20.922c0-2.5547 2.0703-4.625 4.625-4.625 2.5508 0 4.6211 2.0703 4.6211 4.625v20.922c-0.085938 7.1211 0.96875 14.203 3.1172 20.988 0.98828 2.9961 2.2656 5.8906 3.6172 8.9609v0.003906c1.7461 3.7617 3.2461 7.6328 4.4883 11.59 2.7148 9.3555 1.9023 19.383-2.2773 28.184-0.75781 1.6641-1.582 3.3203-2.3789 4.9297-2.6172 5.2812-5.0859 10.277-5.7617 15.512-1.1289 8.7617 0.83203 17.645 5.5508 25.113 0.94141 1.418 1.0234 3.2383 0.21875 4.7383-0.80078 1.4961-2.3633 2.4336-4.0664 2.4375z"/>
  <path d="m200.08 489.11c-1.8711 0-3.5586-1.125-4.2734-2.8555-0.71484-1.7305-0.31641-3.7188 1.0078-5.043l25.113-25.113c1.8086-1.8047 4.7344-1.8047 6.5391 0l25.113 25.113c1.7539 1.8164 1.7266 4.6992-0.054687 6.4844-1.7852 1.7852-4.668 1.8086-6.4844 0.054687l-21.809-21.836-21.879 21.836c-0.86719 0.87109-2.043 1.3594-3.2734 1.3594z"/>
  <path d="m435.2 603.54c-1.5547 0.003906-3.0078-0.77734-3.8672-2.0742-5.9883-9.3203-8.4688-20.465-6.9922-31.445 0.87891-6.7617 3.8125-12.691 6.6406-18.414 0.80469-1.6172 1.5625-3.1523 2.2656-4.6914 3.2344-6.7852 3.875-14.516 1.8047-21.738-1.1328-3.5703-2.4961-7.0586-4.0781-10.453-1.3789-3.1367-2.7734-6.3711-3.9297-9.7852h-0.003907c-2.457-7.7227-3.6719-15.789-3.5859-23.891v-20.879c0-2.5547 2.0703-4.625 4.625-4.625s4.625 2.0703 4.625 4.625v20.922c-0.082031 7.1172 0.96875 14.203 3.1172 20.988 0.98828 2.9961 2.2656 5.9023 3.6172 8.9727h-0.003906c1.75 3.7578 3.2461 7.625 4.4883 11.582 2.7188 9.3516 1.918 19.379-2.25 28.184-0.76953 1.6641-1.5898 3.3203-2.3867 4.9297-2.6094 5.2812-5.0781 10.277-5.7617 15.512-1.1367 8.7617 0.82812 17.645 5.5508 25.113 0.9375 1.4219 1.0156 3.2422 0.20703 4.7422-0.8125 1.5-2.3789 2.4297-4.082 2.4258z"/>
  <path d="m453.19 489.11c-1.2305 0-2.4102-0.48828-3.2773-1.3594l-21.836-21.836-21.848 21.84v-0.003906c-1.8164 1.7539-4.6992 1.7305-6.4844-0.054687-1.7852-1.7852-1.8086-4.668-0.054688-6.4844l25.113-25.113h-0.003907c1.8086-1.8047 4.7344-1.8047 6.543 0l25.129 25.113c1.3242 1.3242 1.7227 3.3125 1.0078 5.043-0.71484 1.7305-2.4023 2.8555-4.2734 2.8555z"/>
  <path d="m333.79 603.54c-1.5508 0-3-0.77734-3.8555-2.0742-5.9961-9.3164-8.4805-20.465-7.0039-31.445 0.87891-6.7617 3.8125-12.691 6.6406-18.414 0.80469-1.6172 1.5625-3.1523 2.2656-4.6914h0.003907c3.2344-6.7852 3.8789-14.516 1.8008-21.738-1.1328-3.5703-2.4922-7.0586-4.0781-10.453-1.3789-3.1367-2.7734-6.3828-3.9297-9.7852-2.457-7.7227-3.6641-15.789-3.582-23.891v-20.879c0-2.5547 2.0703-4.625 4.625-4.625s4.625 2.0703 4.625 4.625v20.922c-0.09375 7.1172 0.94531 14.203 3.082 20.988 0.98828 2.9883 2.2656 5.8906 3.6172 8.9609v0.003906c1.75 3.7578 3.2539 7.6289 4.4922 11.59 2.7148 9.3516 1.918 19.375-2.2461 28.184-0.75781 1.6641-1.582 3.3203-2.3789 4.9297-2.6172 5.2812-5.0859 10.277-5.7617 15.512-1.1406 8.7617 0.82422 17.648 5.5508 25.113 0.9375 1.418 1.0234 3.2383 0.21875 4.7383-0.80469 1.4961-2.3633 2.4336-4.0664 2.4375z"/>
  <path d="m351.75 489.11c-1.2266 0-2.4023-0.48828-3.2656-1.3594l-21.848-21.84-21.859 21.84c-1.8125 1.7539-4.6992 1.7305-6.4805-0.054687-1.7852-1.7852-1.8086-4.668-0.058594-6.4844l25.113-25.113c0.86719-0.86719 2.0469-1.3555 3.2734-1.3555 1.2305 0 2.4102 0.48828 3.2773 1.3555l25.113 25.113c1.3242 1.3242 1.7227 3.3164 1.0039 5.0469-0.71484 1.7305-2.4062 2.8555-4.2812 2.8516z"/>
  <path d="m536.66 603.54c-1.5508 0-3-0.77734-3.8555-2.0742-5.9922-9.3203-8.4727-20.465-7-31.445 0.87891-6.7617 3.8125-12.691 6.6523-18.426 0.79688-1.6172 1.5547-3.1445 2.2656-4.6797h-0.003906c3.2305-6.7852 3.8711-14.516 1.7969-21.738-1.1328-3.5703-2.4961-7.0586-4.082-10.453-1.3789-3.1367-2.7734-6.3711-3.9297-9.7852-2.4531-7.707-3.6602-15.758-3.5781-23.848v-20.922c0-2.5547 2.0703-4.625 4.625-4.625 2.5508 0 4.625 2.0703 4.625 4.625v20.922c-0.089844 7.1211 0.96484 14.203 3.1172 20.988 0.98828 2.9961 2.2656 5.8906 3.6172 8.9609l-0.003906 0.003906c1.7461 3.7617 3.2461 7.6328 4.4883 11.59 2.7148 9.3555 1.9062 19.383-2.2773 28.184-0.75781 1.6641-1.582 3.3203-2.3789 4.9297-2.6172 5.2812-5.0859 10.277-5.7617 15.512h0.003906c-1.1406 8.7617 0.82422 17.645 5.5469 25.113 0.94141 1.418 1.0234 3.2422 0.21875 4.7422-0.80469 1.5-2.3711 2.4336-4.0742 2.4336z"/>
  <path d="m554.62 489.11c-1.2266 0-2.3984-0.48828-3.2656-1.3594l-21.809-21.836-21.84 21.84v-0.003906c-1.8164 1.7539-4.6992 1.7305-6.4844-0.054687-1.7812-1.7852-1.8086-4.668-0.054687-6.4844l25.113-25.113c1.8047-1.8047 4.7305-1.8047 6.5391 0l25.113 25.113c1.3242 1.3242 1.7227 3.3164 1.0039 5.0469-0.71484 1.7305-2.4062 2.8555-4.2812 2.8516z"/>
 </g>
</svg>
